#!OML:ASF F:\VICON\USERDATA\Patient Classification 1\PLAYGROUND\JustinFriday\JustinFriday.ASF
:FULLY-SPECIFIED
:DEGREES
2581
root 13.5476 18.0321 52.9646 173.474 41.9995 -178.326
lowerback 25.6592 -0.0647972 -11.5025
upperback 5.50296 -2.08805 2.73386
thorax -7.44677 -0.476823 10.3625
lowerneck -17.0866 -4.26011 -9.65898
upperneck 18.7251 -6.31536 14.9936
head 9.55514 -1.91387 6.06681
rclavicle 7.7526e-014 -5.30755e-014
rhumerus -31.2554 -28.6796 -54.4664
rradius 14.8897
rwrist 9.75221
rhand -26.3009 -28.5114
rfingers 7.12502
rthumb 0.255102 -418.491
lclavicle 7.7526e-014 -5.30755e-014
lhumerus -18.1538 30.0882 53.427
lradius 70.796
lwrist -16.6118
lhand -43.4868 -16.997
lfingers 7.12502
lthumb -16.3271 12.3357
rfemur -24.5663 5.39237 13.4412
rtibia 56.6838
rfoot -16.6512 -15.5835
rtoes 18.047
lfemur 13.3431 18.7749 -17.0855
ltibia 11.1287
lfoot -15.417 6.17468
ltoes 11.3755
2582
root 13.5476 18.0482 52.921 174.743 42.1603 -177.705
lowerback 24.7032 -0.491212 -10.4134
upperback 5.34142 -2.31005 2.78662
thorax -7.15317 -0.638072 9.79933
lowerneck -16.9795 -4.22692 -9.60963
upperneck 18.6753 -6.331 15.2568
head 9.52972 -1.89023 6.15225
rclavicle -2.83268e-014 -1.78906e-014
rhumerus -32.7756 -32.0794 -51.6599
rradius 14.2997
rwrist 12.3284
rhand -26.0863 -29.1929
rfingers 7.12502
rthumb 0.462402 -419.172
lclavicle -2.83268e-014 -1.78906e-014
lhumerus -19.7158 29.6094 54.0924
lradius 71.0692
lwrist -16.1911
lhand -43.6565 -18.0794
lfingers 7.12502
lthumb -16.4905 11.2397
rfemur -24.7851 4.54942 13.2532
rtibia 54.5696
rfoot -16.3628 -15.2328
rtoes 17.5934
lfemur 12.0429 17.6155 -17.4812
ltibia 11.7657
lfoot -15.9527 7.71717
ltoes 10.3087
2583
root 13.5925 18.0459 52.9064 174.627 43.059 -177.617
lowerback 24.5892 -0.212262 -10.697
upperback 5.46313 -1.98523 2.89537
thorax -7.01396 -0.48908 9.98931
lowerneck -16.4642 -4.40153 -9.05077
upperneck 18.7685 -6.54998 14.2092
head 9.43288 -2.08389 5.6382
rclavicle 5.96354e-015 -3.22031e-014
rhumerus -34.0734 -33.992 -49.6964
rradius 13.9386
rwrist 11.7412
rhand -27.1279 -28.9832
rfingers 7.12502
rthumb -0.543623 -418.962
lclavicle 5.96354e-015 -3.22031e-014
lhumerus -21.0829 29.087 54.9044
lradius 71.2037
lwrist -15.7696
lhand -43.8359 -19.1037
lfingers 7.12502
lthumb -16.6632 10.201
rfemur -24.0236 5.15249 13.2205
rtibia 52.609
rfoot -16.3321 -15.3562
rtoes 17.5095
lfemur 12.3499 18.7174 -16.8784
ltibia 12.2256
lfoot -16.1514 7.51253
ltoes 9.50701
2584
root 13.6427 18.0372 52.8894 174.639 44.0703 -177.413
lowerback 24.283 0.0627177 -10.8733
upperback 5.61191 -1.61926 3.00353
thorax -6.76568 -0.332412 10.0944
lowerneck -16.3871 -4.41594 -8.52024
upperneck 19.1281 -6.57299 13.4062
head 9.4944 -2.13575 5.26142
rclavicle 3.59303e-014 -5.06901e-014
rhumerus -35.4585 -35.8723 -47.6483
rradius 13.7918
rwrist 12.0459
rhand -26.9689 -30.1169
rfingers 7.12502
rthumb -0.390018 -420.096
lclavicle 3.59303e-014 -5.06901e-014
lhumerus -22.8031 28.4516 55.7384
lradius 71.285
lwrist -14.8416
lhand -44.0081 -20.778
lfingers 7.12502
lthumb -16.829 8.51275
rfemur -23.3329 6.06431 13.2991
rtibia 50.7542
rfoot -16.5496 -15.6461
rtoes 17.2082
lfemur 12.852 19.3297 -16.3318
ltibia 12.2699
lfoot -16.3835 7.73062
ltoes 9.67572
2585
root 13.6726 18.017 52.8617 174.513 44.6921 -177.581
lowerback 24.0016 0.119716 -10.8143
upperback 5.67783 -1.50669 2.94731
thorax -6.58076 -0.29671 9.94726
lowerneck -16.1435 -4.43086 -8.30222
upperneck 19.2018 -6.61613 13.1796
head 9.46276 -2.16857 5.13853
rclavicle -5.07398e-014 7.45443e-014
rhumerus -36.7272 -37.0421 -46.0197
rradius 13.7313
rwrist 11.8153
rhand -27.4544 -30.7458
rfingers 7.12502
rthumb -0.858964 -420.724
lclavicle -5.07398e-014 7.45443e-014
lhumerus -24.4353 27.5742 56.6425
lradius 71.3094
lwrist -13.5659
lhand -44.326 -22.6034
lfingers 7.12502
lthumb -17.135 6.66103
rfemur -22.8435 6.32665 12.8275
rtibia 49.0241
rfoot -16.5452 -15.5589
rtoes 18.2111
lfemur 13.2689 19.0931 -16.5899
ltibia 11.9283
lfoot -16.5811 8.48053
ltoes 10.1675
2586
root 13.7053 17.9944 52.8391 174.192 45.2353 -177.874
lowerback 23.9127 0.217955 -10.9041
upperback 5.7494 -1.38984 2.89315
thorax -6.48108 -0.248223 9.89885
lowerneck -15.828 -4.43578 -8.3457
upperneck 19.0584 -6.66051 13.4209
head 9.37093 -2.17794 5.22448
rclavicle 1.03368e-014 -3.45885e-014
rhumerus -37.9691 -37.9367 -44.522
rradius 13.6803
rwrist 11.5338
rhand -27.9018 -30.5838
rfingers 7.12502
rthumb -1.29104 -420.56
lclavicle 1.03368e-014 -3.45885e-014
lhumerus -25.7931 26.4098 57.5515
lradius 71.1959
lwrist -12.8523
lhand -44.1809 -23.0505
lfingers 7.12502
lthumb -16.9953 6.22595
rfemur -22.2632 6.49865 12.3126
rtibia 47.2289
rfoot -16.3899 -15.522
rtoes 18.2769
lfemur 13.3496 19.1234 -16.7881
ltibia 12.482
lfoot -17.1011 8.98053
ltoes 9.8868
2587
root 13.7564 17.9992 52.8227 174.695 45.9285 -177.249
lowerback 23.5627 0.329857 -10.7005
upperback 5.82131 -1.14355 3.08341
thorax -6.28467 -0.149339 9.91278
lowerneck -15.4944 -4.44854 -8.32963
upperneck 18.897 -6.70789 13.5534
head 9.26362 -2.19831 5.25952
rclavicle 3.69988e-014 -2.27608e-014
rhumerus -39.2016 -38.6033 -43.1462
rradius 13.7679
rwrist 11.0796
rhand -27.9478 -30.4923
rfingers 7.12502
rthumb -1.33551 -420.468
lclavicle 3.69988e-014 -2.27608e-014
lhumerus -27.4018 25.4655 58.5959
lradius 71.0042
lwrist -12.2216
lhand -43.1669 -23.07
lfingers 7.12502
lthumb -16.0191 6.28777
rfemur -21.8119 7.2386 12.6891
rtibia 45.4022
rfoot -16.2939 -16.2494
rtoes 16.2129
lfemur 13.2242 19.9914 -15.8564
ltibia 13.3116
lfoot -17.3817 8.82774
ltoes 9.20393
2588
root 13.7264 18.0298 52.7824 177.715 47.3679 -176.049
lowerback 21.4808 0.20055 -9.00584
upperback 5.29792 -0.868162 3.13504
thorax -5.92696 -0.0840922 8.83395
lowerneck -14.8374 -4.58224 -8.18791
upperneck 18.4529 -6.9162 13.5303
head 9.00899 -2.32235 5.18742
rclavicle -1.65364e-013 5.19822e-014
rhumerus -40.0585 -38.7308 -42.4477
rradius 13.9647
rwrist 9.61609
rhand -28.7561 -30.6332
rfingers 7.12502
rthumb -2.11611 -420.602
lclavicle -1.65364e-013 5.19822e-014
lhumerus -29.2402 24.6521 59.6181
lradius 71.1274
lwrist -11.8792
lhand -41.2916 -21.9521
lfingers 7.12502
lthumb -14.2126 7.54169
rfemur -24.3323 6.32907 12.5486
rtibia 43.5445
rfoot -14.856 -14.8499
rtoes 14.1193
lfemur 10.1912 18.5738 -17.1936
ltibia 14.0361
lfoot -18.1646 11.8434
ltoes 10.0989
2589
root 13.741 18.014 52.7591 177.922 47.4243 -175.929
lowerback 21.4618 0.0031553 -8.49933
upperback 5.2832 -1.01983 3.09393
thorax -5.91926 -0.163919 8.52735
lowerneck -14.1282 -4.73956 -7.91639
upperneck 17.8141 -7.16827 13.4976
head 8.68102 -2.46837 5.0816
rclavicle -4.45029e-014 3.97569e-016
rhumerus -40.9225 -39.1638 -41.641
rradius 14.0606
rwrist 8.4739
rhand -29.7105 -29.9075
rfingers 7.12502
rthumb -3.03784 -419.866
lclavicle -4.45029e-014 3.97569e-016
lhumerus -30.7196 23.4083 60.8535
lradius 71.1513
lwrist -10.7106
lhand -41.1845 -20.6353
lfingers 7.12502
lthumb -14.1095 8.86568
rfemur -24.0057 5.86221 12.1747
rtibia 41.8797
rfoot -15.101 -14.0996
rtoes 14.7217
lfemur 9.8475 17.3735 -17.5988
ltibia 14.5054
lfoot -18.6594 12.9221
ltoes 10.7628
2590
root 13.7807 17.9953 52.741 177.163 48.057 -176.527
lowerback 21.6627 0.179839 -8.9445
upperback 5.43654 -0.890535 2.97164
thorax -5.86846 -0.0985679 8.62116
lowerneck -14.0778 -4.71259 -7.50065
upperneck 17.9358 -7.14806 13.0495
head 8.67593 -2.4732 4.85783
rclavicle 7.65321e-014 -5.76476e-015
rhumerus -42.3609 -40.6169 -39.7336
rradius 14.1858
rwrist 8.95809
rhand -29.0555 -29.2559
rfingers 7.12502
rthumb -2.4053 -419.222
lclavicle 7.65321e-014 -5.76476e-015
lhumerus -31.8355 22.332 62.0626
lradius 70.8239
lwrist -9.6575
lhand -41.226 -20.0684
lfingers 7.12502
lthumb -14.1494 9.42979
rfemur -23.289 6.07404 11.449
rtibia 40.2152
rfoot -15.295 -13.5395
rtoes 15.5158
lfemur 9.96802 17.1931 -18.0621
ltibia 15.3665
lfoot -19.4464 13.6951
ltoes 10.6838
2591
root 13.842 17.9784 52.7119 176.174 49.4797 -177.316
lowerback 21.4403 0.710831 -9.76598
upperback 5.70981 -0.338363 2.85801
thorax -5.54738 0.15434 8.82185
lowerneck -14.3674 -4.57451 -7.25385
upperneck 18.5477 -6.95883 12.6094
head 8.88718 -2.38193 4.69855
rclavicle -1.63997e-014 -1.23246e-014
rhumerus -43.755 -41.7853 -37.9055
rradius 14.707
rwrist 8.53872
rhand -23.2881 -30.5273
rfingers 7.12502
rthumb 3.16488 -420.484
lclavicle -1.63997e-014 -1.23246e-014
lhumerus -32.8716 21.6877 63.2704
lradius 70.2895
lwrist -9.44
lhand -40.3908 -19.8244
lfingers 7.12502
lthumb -13.3445 9.72826
rfemur -22.753 6.8423 10.7207
rtibia 38.8912
rfoot -15.1826 -12.989
rtoes 16.244
lfemur 10.8227 17.841 -18.4884
ltibia 15.3961
lfoot -19.8855 14.6367
ltoes 9.79793
2592
root 13.8779 17.9901 52.6883 178.214 49.7926 -175.35
lowerback 20.9097 0.543001 -8.45025
upperback 5.5139 -0.241061 3.25418
thorax -5.53716 0.187531 8.45967
lowerneck -13.6838 -4.66995 -7.40133
upperneck 18.1588 -7.10435 12.9005
head 8.66263 -2.46303 4.80392
rclavicle 9.29194e-014 -4.48259e-014
rhumerus -44.8352 -41.7965 -36.9604
rradius 15.0098
rwrist 8.03746
rhand -22.1452 -30.8351
rfingers 7.12502
rthumb 4.26851 -420.772
lclavicle 9.29194e-014 -4.48259e-014
lhumerus -34.0614 21.2135 64.3937
lradius 69.3829
lwrist -9.95395
lhand -39.1042 -20.2301
lfingers 7.12502
lthumb -12.1042 9.39979
rfemur -22.9818 6.85415 11.8506
rtibia 37.6164
rfoot -15.212 -12.9118
rtoes 15.6522
lfemur 10.5035 17.625 -17.277
ltibia 15.189
lfoot -19.6813 15.2044
ltoes 9.13422
2593
root 13.9321 17.9721 52.6526 177.342 50.3438 -176.115
lowerback 21.1003 0.54281 -8.58527
upperback 5.50334 -0.318131 2.86434
thorax -5.63433 0.154206 8.12534
lowerneck -12.6476 -4.8637 -6.98024
upperneck 17.2298 -7.46526 13.1781
head 8.19952 -2.63841 4.77189
rclavicle 7.0171e-014 -5.19822e-014
rhumerus -46.0623 -42.328 -36.1528
rradius 15.1709
rwrist 8.02427
rhand -22.5744 -30.3496
rfingers 7.12502
rthumb 3.85408 -420.294
lclavicle 7.0171e-014 -5.19822e-014
lhumerus -35.1482 20.4972 65.0829
lradius 68.4961
lwrist -9.85818
lhand -38.8128 -19.8932
lfingers 7.12502
lthumb -11.8231 9.75302
rfemur -22.4657 7.17596 11.1448
rtibia 36.4067
rfoot -15.2229 -12.8497
rtoes 13.3641
lfemur 11.0978 17.7168 -17.6975
ltibia 15.1772
lfoot -19.7903 15.7765
ltoes 8.51665
2594
root 13.9857 17.9559 52.633 177.011 50.9459 -176.657
lowerback 21.0466 0.593124 -8.79048
upperback 5.39907 -0.336236 2.55504
thorax -5.71794 0.147128 7.90428
lowerneck -12.3099 -4.84132 -6.18483
upperneck 17.3727 -7.48528 12.5192
head 8.12886 -2.66107 4.41365
rclavicle -7.88678e-014 -2.52457e-014
rhumerus -46.5964 -41.8365 -36.4765
rradius 15.5496
rwrist 6.49757
rhand -22.3647 -29.9033
rfingers 7.12502
rthumb 4.05659 -419.844
lclavicle -7.88678e-014 -2.52457e-014
lhumerus -36.194 19.7257 65.7992
lradius 67.6983
lwrist -9.69144
lhand -38.6886 -20.142
lfingers 7.12502
lthumb -11.7034 9.51107
rfemur -22.2245 7.85929 10.5232
rtibia 35.0103
rfoot -15.3218 -12.9541
rtoes 13.6161
lfemur 11.1756 18.0957 -17.9724
ltibia 15.393
lfoot -20.1771 16.018
ltoes 8.52198
2595
root 14.0325 17.9715 52.6251 178.827 51.3322 -175.462
lowerback 20.2266 0.577151 -8.26255
upperback 5.13684 -0.212134 2.86199
thorax -5.61197 0.188384 7.8937
lowerneck -12.591 -4.50231 -6.13241
upperneck 18.534 -6.95523 11.7608
head 8.47809 -2.43024 4.22847
rclavicle -5.72997e-014 4.96962e-015
rhumerus -45.8813 -39.2667 -38.5693
rradius 16.3441
rwrist 3.14428
rhand -22.0131 -30.1875
rfingers 7.12502
rthumb 4.39612 -420.122
lclavicle -5.72997e-014 4.96962e-015
lhumerus -37.0426 18.9224 67.2485
lradius 66.9585
lwrist -9.7186
lhand -38.9822 -19.7333
lfingers 7.12502
lthumb -11.9865 9.90344
rfemur -22.795 8.30803 10.999
rtibia 33.7124
rfoot -15.4317 -13.0544
rtoes 14.7965
lfemur 10.3324 17.6566 -17.5185
ltibia 15.3646
lfoot -20.4264 16.7427
ltoes 9.01743
